<svg width="24" height="23" viewBox="0 0 24 23" fill="none" xmlns="http://www.w3.org/2000/svg">
<g clip-path="url(#clip0_30_2095)">
<path fill-rule="evenodd" clip-rule="evenodd" d="M16.1111 3.08869C14.4477 2.69093 12.7844 1.89542 11.5368 0.702148C10.2893 1.89542 8.62599 2.69093 6.96265 3.08869C7.37848 6.6685 8.62599 9.05504 11.5368 11.0438C14.4477 9.05504 16.1111 6.6685 16.1111 3.08869Z" fill="#FFB627"/>
<path fill-rule="evenodd" clip-rule="evenodd" d="M14.4476 17.899L2.8042 4.77307V11.1372L11.9526 21.0811L14.4476 17.899Z" fill="#FBFBFB"/>
<path fill-rule="evenodd" clip-rule="evenodd" d="M15.6955 16.706L20.6856 11.1374V5.17102L12.7847 13.9217L15.6955 16.706Z" fill="#FBFBFB"/>
<path fill-rule="evenodd" clip-rule="evenodd" d="M16.1113 18.6945V22.2743L20.6855 17.1035V13.5237L16.1113 18.6945Z" fill="#FBFBFB"/>
<path fill-rule="evenodd" clip-rule="evenodd" d="M7.3784 18.6945L2.8042 13.5237V17.1035L7.3784 22.2743V18.6945Z" fill="#FBFBFB"/>
</g>
<defs>
<clipPath id="clip0_30_2095">
<rect width="23.4894" height="22.4681" fill="white"/>
</clipPath>
</defs>
</svg>
